<?xml version="1.0" encoding="UTF-8" standalone="no"?>
<svg width="540px" height="113px" viewBox="0 0 540 113" version="1.1" xmlns="http://www.w3.org/2000/svg" xmlns:xlink="http://www.w3.org/1999/xlink" xmlns:sketch="http://www.bohemiancoding.com/sketch/ns">
    <!-- Generator: Sketch 3.0.4 (8053) - http://www.bohemiancoding.com/sketch -->
    <title>Untitled 6</title>
    <desc>Created with Sketch.</desc>
    <defs></defs>
    <g id="Page-1" stroke="none" stroke-width="1" fill="none" fill-rule="evenodd" sketch:type="MSPage">
        <path d="M0.48,87 L5.04,87 L9.96,58.92 C12,47.52 18.96,41.16 29.16,41.16 C39,41.16 42.84,48.24 40.92,59.04 L37.68,77.64 C36.72,83.04 38.16,87 43.44,87 L48.72,87 L49.44,82.92 L44.4,82.92 C41.88,82.92 41.52,81.36 42,78.72 L45.6,58.2 C47.88,44.88 40.56,36.96 29.76,36.96 C21.36,36.96 15.48,41.64 12,47.4 L20.28,0.36 L15.72,0.36 L0.48,87 Z M56.16,63.48 L99.12,63.48 C100.56,48.24 92.04,36.96 77.4,36.96 C63,36.96 51.48,48.96 51.48,63.84 C51.48,78 61.8,87.96 75.24,87.96 C83.88,87.96 90.84,84.6 95.4,79.44 L92.4,76.8 C88.56,81.12 83.16,83.88 75.24,83.88 C63.84,83.88 56.16,75.24 56.16,63.96 L56.16,63.48 Z M56.52,59.64 C58.2,48.84 66.36,40.92 77.28,40.92 C89.28,40.92 94.8,49.2 94.8,59.64 L56.52,59.64 Z M109.56,87 L115.68,87 L116.4,82.92 L110.52,82.92 C108,82.92 107.64,81.36 108.12,78.72 L122.16,0.36 L117.48,0.36 L103.8,77.64 C102.84,83.04 104.28,87 109.56,87 Z M127.44,87 L133.56,87 L134.28,82.92 L128.4,82.92 C125.88,82.92 125.52,81.36 126,78.72 L140.04,0.36 L135.36,0.36 L121.68,77.64 C120.72,83.04 122.16,87 127.44,87 Z M162,87.96 C176.52,87.96 187.92,75.96 187.92,61.08 C187.92,47.88 177.72,36.96 164.28,36.96 C149.76,36.96 138.12,48.96 138.12,63.84 C138.12,77.04 148.56,87.96 162,87.96 Z M162,83.88 C150.6,83.88 142.8,75.24 142.8,63.96 C142.8,51 151.8,41.04 164.28,41.04 C175.68,41.04 183.24,49.68 183.24,60.96 C183.24,73.92 174.72,83.88 162,83.88 Z M195.96,66.6 L199.56,66.6 L211.2,5.4 L205.92,5.4 L195.96,66.6 Z M194.52,87.84 C196.92,87.84 199.08,85.8 199.08,83.28 C199.08,80.64 196.92,78.6 194.52,78.6 C192.24,78.6 189.96,80.64 189.96,83.28 C189.96,85.8 192.24,87.84 194.52,87.84 Z M223.56,112.44 L228.12,112.44 L235.32,71.88 C237.12,80.64 245.28,87.96 255.48,87.96 C269.4,87.96 280.56,76.08 280.56,60.6 C280.56,46.8 272.16,36.96 259.2,36.96 C251.04,36.96 243.36,41.52 238.8,49.44 L241.2,38.04 L236.64,38.04 L223.56,112.44 Z M254.76,83.88 C243.96,83.88 237.12,75.36 237.12,64.32 C237.12,50.76 246.72,41.04 259.08,41.04 C269.4,41.04 276,48.96 276,60.12 C276,73.56 267.48,83.88 254.76,83.88 Z M304.32,87.96 C312.24,87.96 319.68,83.28 324.12,75.6 L323.64,77.64 C322.32,83.4 323.88,87 329.16,87 L334.44,87 L335.16,82.92 L330.12,82.92 C327.6,82.92 327.24,81.36 327.72,78.72 L334.68,38.04 L330.12,38.04 L327.72,54.12 C325.8,44.04 317.76,36.96 308.28,36.96 C294.6,36.96 283.56,48.72 283.56,64.32 C283.56,78.6 291.96,87.96 304.32,87.96 Z M304.44,83.88 C294.6,83.88 288.12,75.96 288.12,64.8 C288.12,51.24 296.4,41.04 308.64,41.04 C319.08,41.04 325.8,49.68 325.8,60.72 C325.8,74.28 316.2,83.88 304.44,83.88 Z M336.96,87 L341.52,87 L346.32,59.64 C348.24,48.96 354,41.4 362.76,41.4 C364.44,41.4 365.64,41.76 366.96,42.36 L368.88,38.4 C366.96,37.44 365.4,37.08 363,37.08 C355.92,37.08 350.76,42.24 347.64,49.08 L350.16,38.04 L345.6,38.04 L336.96,87 Z M380.28,87.96 C385.08,87.96 387.96,86.16 390.6,83.64 L387.84,80.64 C385.92,82.32 383.88,83.88 380.4,83.88 C375.72,83.88 373.68,80.52 374.88,73.8 L380.52,42 L394.44,42 L395.16,38.04 L381.24,38.04 L384.24,20.88 L379.68,20.88 L376.68,38.04 L369.12,38.04 L368.52,42 L375.96,42 L370.44,73.44 C368.64,83.4 373.32,87.96 380.28,87.96 Z M391.2,112.44 L396.24,112.44 L440.76,38.04 L435.72,38.04 L414.24,74.28 C412.8,76.68 411.72,79.68 411.72,79.92 C411.72,79.68 411.6,76.68 410.88,74.28 L400.32,38.04 L395.52,38.04 L408.72,83.04 L391.2,112.44 Z M519.68,71 L531.84,2.52 L529.6,2.52 L452.8,72.28 L450.24,87 L495.68,87 L492.96,102.04 L514.24,102.04 L516.8,87 L527.84,87 L530.72,71 L519.68,71 Z M498.56,71 L484.48,71 C480,71 475.68,71.48 475.68,71.48 C475.68,71.48 479.84,68.92 483.36,65.72 L496.8,53.56 C499.84,50.84 503.52,46.68 504.16,46.04 C503.68,47.32 501.6,53.24 501.12,56.28 L498.56,71 Z" id="hello!-party-4" fill="#FFFFFF" sketch:type="MSShapeGroup"></path>
    </g>
</svg>